<svg width="117" height="117" fill="none" xmlns="http://www.w3.org/2000/svg"><path d="M115.049 66.299h-27.3v48.749h27.3v-48.75z" fill="#67AB73"/><path d="M115.049 66.299h-5.85v48.749h5.85v-48.75z" fill="#62A36E"/><path d="M115.049 72.149h-27.3v3.9h27.3v-3.9zm0 17.549h-27.3v3.9h27.3v-3.9zm0 13.65h-27.3v3.9h27.3v-3.9z" fill="#77B883"/><path d="M98.435 66.299h5.928c5.901.002 10.686-4.782 10.686-10.682v-.004a10.68 10.68 0 0 0-3.732-8.112L101.399 39l-9.917 8.502a10.68 10.68 0 0 0-3.732 8.112c0 5.9 4.781 10.686 10.682 10.686h.003z" fill="#67AB73"/><path d="M96.565 43.143l17.899 15.916a10.648 10.648 0 0 1-1.967 3.468L93.57 45.705l2.995-2.562zm-6.224 5.517l18.646 16.574a10.581 10.581 0 0 1-4.624 1.065h-.038L88.358 52.105a10.738 10.738 0 0 1 1.983-3.445z" fill="#77B883"/><path d="M56.55 66.299h-27.3v48.749h27.3v-48.75z" fill="#ED5B1C"/><path d="M56.55 66.299H50.7v48.749h5.85v-48.75z" fill="#D45119"/><path d="M56.55 72.149h-27.3v3.9h27.3v-3.9zm0 17.549h-27.3v3.9h27.3v-3.9zm0 13.65h-27.3v3.9h27.3v-3.9z" fill="#F06B32"/><path d="M45.864 66.299h-5.927c-5.901.002-10.684-4.782-10.686-10.682v-.004a10.68 10.68 0 0 1 3.732-8.112L42.9 39l9.918 8.502a10.683 10.683 0 0 1 3.732 8.112c.002 5.9-4.781 10.686-10.682 10.686h-.004z" fill="#ED5B1C"/><path d="M47.734 43.143L29.836 59.059c.43 1.27 1.1 2.447 1.967 3.469L50.73 45.705l-2.996-2.562zm6.225 5.517L35.313 65.234c1.441.7 3.022 1.065 4.623 1.065h.05L55.95 52.105a10.64 10.64 0 0 0-1.992-3.445z" fill="#D45119"/><path d="M29.25 66.299H1.952v48.749h27.3v-48.75z" fill="#F5AE45"/><path d="M29.25 72.149H1.952v3.9h27.3v-3.9zm0 17.549H1.952v3.9h27.3v-3.9zm0 13.65H1.952v3.9h27.3v-3.9z" fill="#FABC5F"/><path d="M18.565 66.299h-5.928c-5.9.002-10.684-4.782-10.686-10.682v-.004a10.68 10.68 0 0 1 3.732-8.112L15.601 39l9.917 8.502a10.683 10.683 0 0 1 3.732 8.112c.002 5.9-4.78 10.686-10.681 10.686h-.004z" fill="#F5AE45"/><path d="M20.435 43.143l-17.9 15.916a10.65 10.65 0 0 0 1.969 3.469L23.43 45.705l-2.995-2.562zm6.225 5.517L8.013 65.234a10.58 10.58 0 0 0 4.623 1.065h.049l15.966-14.194a10.646 10.646 0 0 0-1.993-3.445z" fill="#FABC5F"/><path d="M83.85 115.048h-27.3V50.699l9.75-25.35h7.8l9.75 25.35v64.349z" fill="#ED5B1C"/><path d="M74.1 15.6h-7.8v9.75h7.8V15.6z" fill="#ED5B1C"/><path d="M74.1 15.6h-7.8v5.85h7.8V15.6z" fill="#D45119"/><path d="M70.2 70.199H56.55a1.95 1.95 0 0 1-1.95-1.95v-2.925a8.776 8.776 0 0 1 17.55 0v2.925c0 1.078-.872 1.95-1.95 1.95zm-11.7-3.9h9.75v-.975a4.874 4.874 0 1 0-9.75 0v.975z" fill="#67AB73"/><path d="M83.85 70.199H70.2a1.95 1.95 0 0 1-1.95-1.95v-2.925a8.776 8.776 0 0 1 17.55 0v2.925c0 1.078-.872 1.95-1.95 1.95zm-11.7-3.9h9.75v-.975a4.874 4.874 0 1 0-9.75 0v.975z" fill="#67AB73"/><path d="M70.2 79.949H56.55a1.95 1.95 0 0 1-1.95-1.95v-2.925a8.776 8.776 0 0 1 17.55 0v2.925c0 1.078-.872 1.95-1.95 1.95zm-11.7-3.9h9.75v-.975a4.874 4.874 0 1 0-9.75 0v.975z" fill="#67AB73"/><path d="M83.85 79.949H70.2a1.95 1.95 0 0 1-1.95-1.95v-2.925a8.776 8.776 0 0 1 17.55 0v2.925c0 1.078-.872 1.95-1.95 1.95zm-11.7-3.9h9.75v-.975a4.874 4.874 0 1 0-9.75 0v.975z" fill="#67AB73"/><path d="M70.2 89.698H56.55a1.95 1.95 0 0 1-1.95-1.95v-2.924a8.776 8.776 0 0 1 17.55 0v2.925c0 1.078-.872 1.95-1.95 1.95zm-11.7-3.9h9.75v-.974a4.874 4.874 0 1 0-9.75 0v.975z" fill="#67AB73"/><path d="M83.85 89.698H70.2a1.95 1.95 0 0 1-1.95-1.95v-2.924a8.776 8.776 0 0 1 17.55 0v2.925c0 1.078-.872 1.95-1.95 1.95zm-11.7-3.9h9.75v-.974a4.874 4.874 0 1 0-9.75 0v.975zm11.7-33.148h-27.3a1.95 1.95 0 0 1 0-3.9h27.3a1.95 1.95 0 0 1 0 3.9zm-7.8-7.8a1.948 1.948 0 0 1-1.56-.78l-4.29-5.72-4.29 5.72a1.95 1.95 0 0 1-3.122-2.339l.002-.002 5.85-7.8a2.02 2.02 0 0 1 3.12 0l5.85 7.8a1.95 1.95 0 0 1-1.56 3.12z" fill="#67AB73"/><path d="M70.2 50.699c.517 0 1.014-.205 1.379-.571l8.704-8.705-1.515-3.933a1.904 1.904 0 0 0-.195.13L70.2 45.992l-8.371-8.372a1.894 1.894 0 0 0-.195-.13l-1.516 3.933 8.705 8.705a1.95 1.95 0 0 0 1.377.571z" fill="#67AB73"/><path d="M70.2 5.85l-4.64 4.639a4.137 4.137 0 0 0 2.925 7.06h3.429a4.134 4.134 0 0 0 2.925-7.06l-4.64-4.64z" fill="#F5AE45"/><path d="M72.15 0h-3.9v7.8h3.9V0z" fill="#F5AE45"/><path d="M83.85 93.598h-27.3v3.9h27.3v-3.9zm0 11.7h-27.3v3.9h27.3v-3.9zM32.983 85.799h-7.465a7.968 7.968 0 0 1-5.1-14.089l8.833-7.361 8.833 7.361a7.97 7.97 0 0 1-5.101 14.089z" fill="#67AB73"/><path d="M39 85.799H19.5v29.249H39v-29.25z" fill="#67AB73"/><path d="M31.2 91.648h-3.9v3.9h3.9v-3.9zm0 7.8h-3.9v3.9h3.9v-3.9z" fill="#5C9967"/><path d="M93.6 77.999H70.2v37.049h23.4v-37.05z" fill="#4394CC"/><path d="M79.95 83.849h-3.9v7.8h3.9v-7.8zm7.8 0h-3.9v7.8h3.9v-7.8zm-7.8 13.649h-3.9v3.9h3.9v-3.9zm7.8 0h-3.9v3.9h3.9v-3.9z" fill="#3678A6"/><path d="M93.6 89.698H70.2v3.9h23.4v-3.9zm0 15.6H70.2v3.9h23.4v-3.9z" fill="#3E89BD"/><path d="M78.936 77.999h5.928c5.9.002 10.685-4.782 10.685-10.682v-.004a10.68 10.68 0 0 0-3.732-8.112L81.9 50.699l-9.918 8.502a10.68 10.68 0 0 0-3.732 8.112c0 5.9 4.781 10.686 10.682 10.686h.004z" fill="#4394CC"/><path d="M77.066 54.843l17.898 15.915a10.653 10.653 0 0 1-1.967 3.47L74.07 57.405l2.995-2.562zm-6.225 5.517l18.646 16.574A10.58 10.58 0 0 1 84.864 78h-.04L68.86 63.805a10.74 10.74 0 0 1 1.983-3.446z" fill="#3E89BD"/><path d="M112.586 46.02l-9.919-8.503a1.95 1.95 0 0 0-2.535 0L90.21 46.02c-.528.45-1.015.944-1.46 1.476l2.993 2.5a9.166 9.166 0 0 1 1.004-1.018l8.652-7.41 8.65 7.41a8.738 8.738 0 0 1-5.684 15.372h-2.966v3.9h11.7v3.9h-13.65v3.9h13.65V89.7h-13.65v3.9h13.65v9.749h-13.65v3.9h13.65v5.85h-17.55v-35.1a1.923 1.923 0 0 0-1.635-1.885c4.865-4.986 4.767-12.971-.219-17.834a12.79 12.79 0 0 0-.608-.558L85.8 51.48v-.78c0-.24-.043-.476-.13-.7l-9.62-25.012v-7.135a6.056 6.056 0 0 0 .168-8.742L72.15 5.043V0h-3.9v5.043L64.182 9.11a6.055 6.055 0 0 0 .168 8.742v7.135l-8.71 22.647a12.448 12.448 0 0 0-1.56-1.613l-9.92-8.502a1.95 1.95 0 0 0-2.535 0l-9.913 8.5a12.527 12.527 0 0 0-2.461 2.872 12.568 12.568 0 0 0-2.463-2.872l-9.92-8.502a1.95 1.95 0 0 0-2.535 0L4.412 46.02C-.88 50.547-1.498 58.51 3.029 63.8c.162.187.328.37.5.55H1.95A1.95 1.95 0 0 0 0 66.3v48.749a1.95 1.95 0 0 0 1.95 1.95h113.098a1.95 1.95 0 0 0 1.95-1.95v-48.75a1.95 1.95 0 0 0-1.95-1.949h-1.577c4.832-5.015 4.682-12.997-.334-17.829a11.957 11.957 0 0 0-.552-.5zM67.64 27.3h5.12l4.485 11.65-.975.976-4.51-5.996a2.02 2.02 0 0 0-3.12 0l-4.5 6.002-.976-.975L67.64 27.3zm5.836 15.416L70.2 45.992l-3.276-3.276L70.2 38.35l3.276 4.366zm-6.033 6.033h-8.054l2.231-5.817 5.823 5.817zm11.337-5.817l2.23 5.817h-8.053l5.823-5.817zm-3.227 15.78l15.97 14.195a8.713 8.713 0 0 1-3.658 2.58L72.324 61.674c.284-.355.594-.687.93-.993l2.299-1.97zM91.65 79.948v9.75h-3.9v-5.85h-3.9v5.85h-3.9v-5.85h-3.9v5.85h-3.9v-9.75h19.5zm-9.029-3.9h-3.687a8.668 8.668 0 0 1-8.467-10.803l12.154 10.803zM72.15 93.599h19.5v11.699h-19.5v-11.7zM93.6 67.314a8.658 8.658 0 0 1-.254 2L78.536 56.16l3.364-2.892 8.65 7.41a8.729 8.729 0 0 1 3.05 6.638zM66.94 11.868l3.26-3.26 3.26 3.26a2.186 2.186 0 0 1-1.546 3.732h-3.428a2.183 2.183 0 0 1-2.186-2.184c0-.581.23-1.137.64-1.549zm4.974 7.632h.236v3.9h-3.9v-3.9h3.664zM25.181 49.974L9.641 63.787a8.713 8.713 0 0 1-3.657-2.58l15.968-14.195 2.299 1.97c.337.305.647.637.93.992zM6.949 48.98l8.652-7.413 3.364 2.891-14.81 13.157a8.584 8.584 0 0 1 2.794-8.635zM19.5 77.831a6.004 6.004 0 0 1 2.166-4.623l7.583-6.324 7.584 6.32a6.016 6.016 0 0 1-3.851 10.645h-7.465a6.026 6.026 0 0 1-6.017-6.018zm1.95 35.267v-25.35h15.6v25.35h-15.6zm19.5 0v-27.3c0-.526-.217-1.03-.597-1.396 3.648-4.028 3.34-10.252-.689-13.901a9.06 9.06 0 0 0-.333-.289l-8.832-7.36a1.95 1.95 0 0 0-2.5 0l-8.83 7.36c-4.19 3.465-4.776 9.668-1.311 13.857.093.113.191.224.288.333-.38.365-.594.87-.596 1.397v27.299H3.9v-5.85h9.75v-3.9H3.9v-9.75h9.75v-3.9H3.9V76.05h7.8v-3.9H3.9v-3.9h13.65v-3.9h-2.672l12.155-10.803a8.48 8.48 0 0 1-.055 4.427l3.756 1.053c.31-1.11.466-2.258.466-3.41a8.736 8.736 0 0 1 3.047-6.63l8.652-7.418 8.65 7.41a8.737 8.737 0 0 1-5.684 15.371H40.95v3.9H54.6v3.9h-7.8v3.9h7.8V89.7h-9.75v3.9h9.75v9.749h-9.75v3.9h9.75v5.85H40.95zm17.55 0v-3.9h5.849v-3.9H58.5v-7.8h5.85v-3.9H58.5v-3.9h5.85v-3.9H58.5v-.975a4.874 4.874 0 0 1 5.571-4.826v-.049h.28v-1.88l.278-1.93c-.092-.013-.195-.01-.279-.019v-.07H58.5v-.975a4.896 4.896 0 0 1 4.177-4.826l-.277-1.929V66.3h-3.9v-.975a4.874 4.874 0 0 1 5.571-4.826l.558-3.86a8.733 8.733 0 0 0-6.129 1.396V52.65h18.135l-5.918 5.07c-5.293 4.53-5.91 12.493-1.379 17.785.177.209.363.41.554.607a1.925 1.925 0 0 0-1.642 1.887v35.1H58.5zm13.649 0v-3.9h19.5v3.9h-19.5z" fill="#000"/><path d="M79.95 97.498h-3.9v3.9h3.9v-3.9zm7.8 0h-3.9v3.9h3.9v-3.9zm-56.55-5.85h-3.9v3.9h3.9v-3.9zm0 7.8h-3.9v3.9h3.9v-3.9z" fill="#000"/></svg>