<svg width="117" height="117" fill="none" xmlns="http://www.w3.org/2000/svg"><path d="M38.328 24.207h64.551a2.016 2.016 0 0 0 2.018-2.017 2.016 2.016 0 0 0-2.018-2.018H38.328a2.015 2.015 0 0 0-2.018 2.018c0 1.115.902 2.017 2.018 2.017zm40.344 68.586H14.121a2.015 2.015 0 0 0-2.018 2.017c0 1.116.902 2.018 2.018 2.018h64.551a2.015 2.015 0 0 0 2.018-2.018 2.015 2.015 0 0 0-2.018-2.017zm24.207-36.31H72.621a2.015 2.015 0 0 0-2.017 2.017c0 1.116.901 2.017 2.017 2.017h30.258a2.016 2.016 0 0 0 2.018-2.017 2.016 2.016 0 0 0-2.018-2.017zM14.12 60.517h34.294A2.015 2.015 0 0 0 50.43 58.5a2.015 2.015 0 0 0-2.017-2.017H14.12a2.015 2.015 0 0 0-2.018 2.017c0 1.116.902 2.017 2.018 2.017z" fill="#FB992E"/><path d="M26.224 38.328c6.685 0 12.104-5.42 12.104-12.104 0-6.684-5.42-12.103-12.104-12.103-6.684 0-12.103 5.419-12.103 12.103 0 6.685 5.419 12.104 12.103 12.104zm64.552 72.62c6.684 0 12.103-5.419 12.103-12.103 0-6.685-5.419-12.104-12.103-12.104-6.685 0-12.104 5.42-12.104 12.104 0 6.684 5.42 12.103 12.104 12.103zm-30.259-36.31c6.685 0 12.104-5.419 12.104-12.104 0-6.684-5.42-12.103-12.104-12.103-6.684 0-12.103 5.419-12.103 12.104 0 6.684 5.419 12.103 12.103 12.103z" fill="#C7CAC7"/><path d="M26.224 34.293c6.685 0 12.104-5.419 12.104-12.103 0-6.685-5.42-12.104-12.104-12.104-6.684 0-12.103 5.42-12.103 12.104 0 6.684 5.419 12.103 12.103 12.103zm64.552 72.621c6.684 0 12.103-5.419 12.103-12.104 0-6.684-5.419-12.103-12.103-12.103-6.685 0-12.104 5.419-12.104 12.103 0 6.685 5.42 12.104 12.104 12.104zM60.517 70.603c6.685 0 12.104-5.418 12.104-12.103 0-6.684-5.42-12.103-12.104-12.103-6.684 0-12.103 5.419-12.103 12.103 0 6.685 5.419 12.103 12.103 12.103z" fill="#fff"/></svg>