<svg width="50" height="36" fill="none" xmlns="http://www.w3.org/2000/svg"><path d="M45.97 35.804H4.03c-2.22 0-4.03-1.788-4.03-3.987V4.635C0 2.435 1.809.648 4.03.648h41.94C48.19.648 50 2.436 50 4.635v27.182c0 2.2-1.81 3.987-4.03 3.987zM4.03 2.243c-1.333 0-2.418 1.073-2.418 2.392v27.182c0 1.32 1.085 2.392 2.419 2.392h41.938c1.334 0 2.419-1.073 2.419-2.392V4.635c0-1.319-1.085-2.392-2.419-2.392H4.031z" fill="#424242"/><path d="M25 22.232c-1.072 0-2.144-.352-2.96-1.055L1.338 3.317A.793.793 0 0 1 1.26 2.19a.817.817 0 0 1 1.139-.076L23.1 19.973c1.03.888 2.772.888 3.8 0l20.676-17.83a.813.813 0 0 1 1.139.076.793.793 0 0 1-.078 1.126L27.96 21.175c-.817.705-1.887 1.057-2.96 1.057z" fill="#424242"/></svg>