<svg width="117" height="120" fill="none" xmlns="http://www.w3.org/2000/svg"><path d="M104.897 14.122H92.793l-4.034 58.5h20.172l-4.034-58.5z" fill="#ACABB1"/><path d="M64.552 90.777H80.69v28.242H64.552V90.777z" fill="#57565C"/><path d="M12.103 94.812h8.07v12.103h-8.07V94.812zm16.139 0h8.069v12.103h-8.07V94.812zm16.138 0h8.068v12.103H44.38V94.812z" fill="#ACABB1"/><path d="M60.517 58.502L40.345 74.638V58.502L20.172 74.638V58.502L0 70.605v48.414h60.517V58.501zm-40.345 48.413h-8.069V94.812h8.07v12.103zm16.139 0h-8.07V94.812h8.07v12.103zm16.137 0H44.38V94.812h8.07v12.103z" fill="#FB992E"/><path d="M108.931 72.622h-28.24v-14.12L60.516 74.638v44.38h4.035V90.777H80.69v28.242H117V72.622h-8.069z" fill="#EEBC3D"/><path d="M98.845 8.07a5.101 5.101 0 0 1-4.456-2.715c-.666-.96-.914-1.32-2-1.32-.145.088-.893.791-1.387 1.255a7.884 7.884 0 0 1-5.068 2.78 6.753 6.753 0 0 1-4.367-2.451c-.584-.547-1.672-1.565-2.088-1.584a9.547 9.547 0 0 0-1.698 1.412 7.363 7.363 0 0 1-4.757 2.623 7.058 7.058 0 0 1-4.514-2.517 7.457 7.457 0 0 0-1.955-1.518 2.017 2.017 0 1 1 .014-4.034 7.312 7.312 0 0 1 4.704 2.606 7.835 7.835 0 0 0 1.816 1.433 8.43 8.43 0 0 0 1.942-1.546A6.989 6.989 0 0 1 79.48.001a7.49 7.49 0 0 1 4.841 2.675c.504.53 1.075.99 1.7 1.37.419 0 1.542-1.066 2.218-1.697a6.48 6.48 0 0 1 4.15-2.348 5.96 5.96 0 0 1 5.316 3.06c.657.946.737.974 1.14.974a2.018 2.018 0 0 1 0 4.035z" fill="#898890"/></svg>