<svg width="51" height="50" fill="none" xmlns="http://www.w3.org/2000/svg"><path d="M40.91 50c-2.103 0-4.644-.521-7.437-1.564-6.125-2.284-12.79-6.798-18.765-12.707-5.977-5.912-10.54-12.504-12.852-18.562C-.244 11.66-.249 7.14 1.844 5.07c.301-.297.607-.617.924-.946C4.678 2.137 6.835-.098 9.695.004c1.971.08 3.88 1.29 5.836 3.697 5.778 7.107 3.173 9.64.158 12.577l-.532.52c-.493.489-1.425 2.747 7.244 11.32 2.83 2.8 5.242 4.848 7.17 6.087 1.215.78 3.386 1.96 4.277 1.08l.536-.535c2.966-2.975 5.526-5.543 12.707.166 2.434 1.934 3.656 3.821 3.738 5.774.117 2.827-2.16 4.966-4.17 6.853-.331.313-.654.615-.955.912-1.04 1.029-2.7 1.545-4.794 1.545zM9.491 1.682c-2.032 0-3.867 1.91-5.49 3.6-.327.34-.643.67-.954.977-1.56 1.54-1.402 5.589.4 10.316 2.228 5.84 6.655 12.22 12.465 17.966 5.809 5.744 12.257 10.121 18.163 12.323 4.78 1.786 8.872 1.937 10.428.398.312-.308.645-.62.988-.942 1.747-1.641 3.728-3.501 3.64-5.565-.059-1.417-1.103-2.943-3.102-4.532-5.984-4.76-7.657-3.08-10.433-.296l-.544.543c-1.326 1.314-3.48 1.023-6.405-.857-2.029-1.305-4.535-3.428-7.446-6.309-7.195-7.113-9.496-11.467-7.244-13.7l.542-.529c2.821-2.744 4.523-4.401-.29-10.322-1.611-1.977-3.152-3.01-4.585-3.07l-.133-.001z" fill="#424242"/></svg>