<svg width="117" height="117" viewBox="0 0 117 117" fill="none" xmlns="http://www.w3.org/2000/svg">
<path d="M115.049 66.2988H87.7496V115.048H115.049V66.2988Z" fill="#67AB73"/>
<path d="M115.049 66.2988H109.199V115.048H115.049V66.2988Z" fill="#62A36E"/>
<path d="M115.049 72.1488H87.7496V76.0487H115.049V72.1488Z" fill="#77B883"/>
<path d="M115.049 89.6985H87.7496V93.5984H115.049V89.6985Z" fill="#77B883"/>
<path d="M115.049 103.348H87.7496V107.248H115.049V103.348Z" fill="#77B883"/>
<path d="M98.4354 66.2989H104.363C110.264 66.3008 115.049 61.5175 115.049 55.6169C115.049 55.615 115.049 55.615 115.049 55.613C115.049 52.4931 113.686 49.531 111.317 47.5011L101.399 38.9993L91.482 47.5011C89.1127 49.531 87.7498 52.4931 87.7498 55.613C87.7498 61.5135 92.5311 66.2989 98.4317 66.2989C98.4335 66.2989 98.4354 66.2989 98.4354 66.2989Z" fill="#67AB73"/>
<path d="M96.5654 43.1429L114.464 59.0585C114.033 60.3279 113.365 61.5056 112.497 62.5274L93.5703 45.7051L96.5654 43.1429Z" fill="#77B883"/>
<path d="M90.3412 48.6595L108.987 65.2344C107.546 65.9343 105.966 66.299 104.363 66.299H104.325L88.3583 52.1053C88.7987 50.8434 89.4713 49.6755 90.3412 48.6595Z" fill="#77B883"/>
<path d="M56.5502 66.2988H29.2506V115.048H56.5502V66.2988Z" fill="#ED5B1C"/>
<path d="M56.55 66.2988H50.7002V115.048H56.55V66.2988Z" fill="#D45119"/>
<path d="M56.5502 72.1488H29.2506V76.0487H56.5502V72.1488Z" fill="#F06B32"/>
<path d="M56.5502 89.6985H29.2506V93.5984H56.5502V89.6985Z" fill="#F06B32"/>
<path d="M56.5502 103.348H29.2506V107.248H56.5502V103.348Z" fill="#F06B32"/>
<path d="M45.8643 66.2989H39.9365C34.0359 66.3008 29.2526 61.5175 29.2506 55.6169C29.2506 55.615 29.2506 55.615 29.2506 55.613C29.2506 52.4931 30.6136 49.531 32.9828 47.5011L42.9003 38.9993L52.8178 47.5011C55.187 49.531 56.55 52.495 56.55 55.613C56.552 61.5135 51.7686 66.2989 45.8681 66.2989C45.8683 66.2989 45.8663 66.2989 45.8643 66.2989Z" fill="#ED5B1C"/>
<path d="M47.7344 43.1429L29.8356 59.0587C30.2666 60.3281 30.9353 61.5058 31.8031 62.5276L50.7295 45.7053L47.7344 43.1429Z" fill="#D45119"/>
<path d="M53.9586 48.6595L35.313 65.2344C36.754 65.9343 38.3354 66.299 39.9363 66.299H39.9851L55.9513 52.1053C55.5109 50.8434 54.8341 49.6735 53.9586 48.6595Z" fill="#D45119"/>
<path d="M29.2507 66.2988H1.95105V115.048H29.2507V66.2988Z" fill="#F5AE45"/>
<path d="M29.2507 72.1488H1.95105V76.0487H29.2507V72.1488Z" fill="#FABC5F"/>
<path d="M29.2507 89.6985H1.95105V93.5984H29.2507V89.6985Z" fill="#FABC5F"/>
<path d="M29.2507 103.348H1.95105V107.248H29.2507V103.348Z" fill="#FABC5F"/>
<path d="M18.5648 66.2989H12.6369C6.73637 66.3008 1.95302 61.5175 1.95105 55.6169C1.95105 55.615 1.95105 55.615 1.95105 55.613C1.95105 52.4931 3.31401 49.531 5.68328 47.5011L15.6008 38.9993L25.5182 47.5011C27.8875 49.531 29.2505 52.495 29.2505 55.613C29.2524 61.5135 24.4691 66.2989 18.5685 66.2989C18.5687 66.2989 18.5668 66.2989 18.5648 66.2989Z" fill="#F5AE45"/>
<path d="M20.4348 43.1429L2.53595 59.0587C2.96694 60.3281 3.63564 61.5058 4.50352 62.5276L23.4299 45.7053L20.4348 43.1429Z" fill="#FABC5F"/>
<path d="M26.6592 48.6595L8.01361 65.2344C9.45463 65.9343 11.036 66.299 12.6369 66.299H12.6857L28.6519 52.1053C28.2113 50.8434 27.5346 49.6735 26.6592 48.6595Z" fill="#FABC5F"/>
<path d="M83.8496 115.048H56.5502V50.699L66.3 25.3495H74.0999L83.8496 50.699V115.048Z" fill="#ED5B1C"/>
<path d="M74.0999 15.5997H66.3V25.3495H74.0999V15.5997Z" fill="#ED5B1C"/>
<path d="M74.0999 15.5997H66.3V21.4495H74.0999V15.5997Z" fill="#D45119"/>
<path d="M70.1999 70.1987H56.5502C55.4739 70.1987 54.6003 69.3251 54.6003 68.2489V65.3237C54.6003 60.4781 58.5296 56.5488 63.3753 56.5488C68.2209 56.5488 72.1502 60.4781 72.1502 65.3237V68.2487C72.15 69.3271 71.2782 70.1987 70.1999 70.1987ZM58.5001 66.2988H68.2498V65.3237C68.2498 62.6309 66.0678 60.4488 63.3749 60.4488C60.682 60.4488 58.4999 62.6328 58.4999 65.3237V66.2988H58.5001Z" fill="#67AB73"/>
<path d="M83.8496 70.1987H70.1999C69.1237 70.1987 68.2499 69.3251 68.2499 68.2489V65.3237C68.2499 60.4781 72.1791 56.5488 77.0248 56.5488C81.8705 56.5488 85.7997 60.4781 85.7997 65.3237V68.2487C85.7997 69.3271 84.9281 70.1987 83.8496 70.1987ZM72.15 66.2988H81.8998V65.3237C81.8998 62.6309 79.7177 60.4488 77.0248 60.4488C74.3319 60.4488 72.1498 62.6328 72.1498 65.3237V66.2988H72.15Z" fill="#67AB73"/>
<path d="M70.1999 79.9488H56.5502C55.4739 79.9488 54.6003 79.0752 54.6003 77.9989V75.074C54.6003 70.2283 58.5296 66.2991 63.3753 66.2991C68.2209 66.2991 72.1502 70.2283 72.1502 75.074V77.9989C72.15 79.077 71.2782 79.9488 70.1999 79.9488ZM58.5001 76.0488H68.2498V75.0738C68.2498 72.3809 66.0678 70.1988 63.3749 70.1988C60.682 70.1988 58.4999 72.3829 58.4999 75.0738V76.0488H58.5001Z" fill="#67AB73"/>
<path d="M83.8496 79.9488H70.1999C69.1237 79.9488 68.2499 79.0752 68.2499 77.9989V75.074C68.2499 70.2283 72.1791 66.2991 77.0248 66.2991C81.8705 66.2991 85.7997 70.2283 85.7997 75.074V77.9989C85.7997 79.077 84.9281 79.9488 83.8496 79.9488ZM72.15 76.0488H81.8998V75.0738C81.8998 72.3809 79.7177 70.1988 77.0248 70.1988C74.3319 70.1988 72.1498 72.3829 72.1498 75.0738V76.0488H72.15Z" fill="#67AB73"/>
<path d="M70.1999 89.6985H56.5502C55.4739 89.6985 54.6003 88.825 54.6003 87.7487V84.8237C54.6003 79.9781 58.5296 76.0488 63.3753 76.0488C68.2209 76.0488 72.1502 79.9781 72.1502 84.8237V87.7487C72.15 88.8269 71.2782 89.6985 70.1999 89.6985ZM58.5001 85.7986H68.2498V84.8236C68.2498 82.1307 66.0678 79.9486 63.3749 79.9486C60.682 79.9486 58.4999 82.1326 58.4999 84.8236V85.7986H58.5001Z" fill="#67AB73"/>
<path d="M83.8496 89.6985H70.1999C69.1237 89.6985 68.2499 88.825 68.2499 87.7487V84.8237C68.2499 79.9781 72.1791 76.0488 77.0248 76.0488C81.8705 76.0488 85.7997 79.9781 85.7997 84.8237V87.7487C85.7997 88.8269 84.9281 89.6985 83.8496 89.6985ZM72.15 85.7986H81.8998V84.8236C81.8998 82.1307 79.7177 79.9486 77.0248 79.9486C74.3319 79.9486 72.1498 82.1326 72.1498 84.8236V85.7986H72.15Z" fill="#67AB73"/>
<path d="M83.8496 52.6491H56.5502C55.4739 52.6491 54.6003 51.7756 54.6003 50.6993C54.6003 49.623 55.4739 48.7494 56.5502 48.7494H83.8498C84.9261 48.7494 85.7997 49.623 85.7997 50.6993C85.7997 51.7756 84.9281 52.6491 83.8496 52.6491Z" fill="#67AB73"/>
<path d="M76.0498 44.8492C75.4355 44.8492 74.8582 44.5606 74.4898 44.0692L70.1999 38.3499L65.9101 44.0692C65.2646 44.9312 64.042 45.1066 63.1802 44.4611C62.3183 43.8156 62.1429 42.593 62.7884 41.7312L62.7904 41.7292L68.6402 33.9294C69.35 33.0674 70.6213 32.9447 71.4833 33.6525C71.5847 33.7363 71.6764 33.8281 71.7601 33.9294L77.6099 41.7292C78.2554 42.5912 78.0818 43.8138 77.22 44.4591C76.8824 44.7127 76.4731 44.8492 76.0498 44.8492Z" fill="#67AB73"/>
<path d="M70.1999 50.699C70.7166 50.699 71.2139 50.4943 71.5786 50.1276L80.2833 41.4229L78.7682 37.4897C78.7 37.5287 78.6357 37.5735 78.5732 37.6203L70.1999 45.9916L61.8287 37.6203C61.7663 37.5735 61.7018 37.5287 61.6336 37.4897L60.1185 41.4229L68.8232 50.1276C69.1899 50.4943 69.6852 50.699 70.1999 50.699Z" fill="#67AB73"/>
<path d="M70.1999 5.84985L65.5609 10.4889C64.7868 11.2649 64.3499 12.318 64.3499 13.4138C64.3519 15.6991 66.2025 17.5497 68.4858 17.5497H71.9139C74.1992 17.5497 76.0497 15.6991 76.0497 13.4138C76.0497 12.3159 75.6148 11.2649 74.8388 10.4889L70.1999 5.84985Z" fill="#F5AE45"/>
<path d="M72.15 0H68.2501V7.79988H72.15V0Z" fill="#F5AE45"/>
<path d="M83.8498 93.5984H56.5502V97.4983H83.8498V93.5984Z" fill="#67AB73"/>
<path d="M83.8498 105.298H56.5502V109.198H83.8498V105.298Z" fill="#67AB73"/>
<path d="M32.9828 85.7985H25.5184C21.1192 85.7985 17.5508 82.2321 17.5508 77.8309C17.5508 75.4656 18.6019 73.2232 20.4173 71.71L29.2506 64.3488L38.0839 71.71C39.8993 73.2232 40.9504 75.4656 40.9504 77.8309C40.9504 82.2321 37.384 85.7985 32.9828 85.7985Z" fill="#67AB73"/>
<path d="M39.0004 85.7986H19.5007V115.048H39.0004V85.7986Z" fill="#67AB73"/>
<path d="M31.2005 91.6483H27.3005V95.5483H31.2005V91.6483Z" fill="#5C9967"/>
<path d="M31.2005 99.4482H27.3005V103.348H31.2005V99.4482Z" fill="#5C9967"/>
<path d="M93.5996 77.9987H70.2V115.048H93.5996V77.9987Z" fill="#4394CC"/>
<path d="M79.9497 83.8486H76.0497V91.6485H79.9497V83.8486Z" fill="#3678A6"/>
<path d="M87.7496 83.8486H83.8496V91.6485H87.7496V83.8486Z" fill="#3678A6"/>
<path d="M79.9497 97.4984H76.0497V101.398H79.9497V97.4984Z" fill="#3678A6"/>
<path d="M87.7496 97.4984H83.8496V101.398H87.7496V97.4984Z" fill="#3678A6"/>
<path d="M93.5996 89.6985H70.2V93.5984H93.5996V89.6985Z" fill="#3E89BD"/>
<path d="M93.5996 105.298H70.2V109.198H93.5996V105.298Z" fill="#3E89BD"/>
<path d="M78.9357 77.9987H84.8636C90.7641 78.0007 95.5495 73.2173 95.5495 67.3168C95.5495 67.3148 95.5495 67.3148 95.5495 67.3128C95.5495 64.1929 94.1865 61.2308 91.8172 59.2009L81.8998 50.6991L71.9823 59.2011C69.613 61.231 68.2501 64.1931 68.2501 67.313C68.2501 73.2136 73.0314 77.9989 78.932 77.9989C78.9338 77.9987 78.9357 77.9987 78.9357 77.9987Z" fill="#4394CC"/>
<path d="M77.0657 54.8428L94.9645 70.7585C94.5335 72.0279 93.8648 73.2056 92.9969 74.2275L74.0706 57.4051L77.0657 54.8428Z" fill="#3E89BD"/>
<path d="M70.8415 60.3594L89.4871 76.9342C88.0461 77.6341 86.4666 77.9989 84.8638 77.9989H84.8248L68.8586 63.8051C69.299 62.5432 69.9718 61.3753 70.8415 60.3594Z" fill="#3E89BD"/>
<path d="M112.586 46.0191L102.667 37.5173C101.938 36.8932 100.861 36.8932 100.132 37.5173L90.2105 46.0191C89.682 46.4696 89.1945 46.9629 88.75 47.4953L91.7431 49.9952C92.0512 49.6304 92.3866 49.2893 92.7472 48.9773L101.399 41.5675L110.049 48.9773C113.713 52.1147 114.14 57.6293 111.003 61.2953C109.343 63.2335 106.918 64.3509 104.365 64.349H101.399V68.2489H113.099V72.1488H99.4496V76.0488H113.099V89.6985H99.4496V93.5984H113.099V103.348H99.4496V107.248H113.099V113.098H95.5497V77.9987C95.5418 77.0529 94.8477 76.2535 93.9136 76.1131C98.7787 71.127 98.6812 63.1419 93.6951 58.2787C93.4981 58.0857 93.2954 57.9004 93.0868 57.7211L85.7997 51.4792V50.6993C85.7997 50.4594 85.7568 50.2234 85.6709 49.9993L76.0497 24.987V17.8519C78.5087 15.586 78.6626 11.7543 76.3968 9.29537C76.3382 9.23304 76.2778 9.17052 76.2175 9.11016L72.1498 5.0425V0H68.2499V5.04269L64.1824 9.11016C61.8131 11.4696 61.8055 15.3033 64.1649 17.6725C64.2253 17.7349 64.2878 17.7935 64.3501 17.8519V24.9868L55.6397 47.6338C55.1698 47.0508 54.6472 46.5107 54.0797 46.0211L44.1603 37.5193C43.431 36.8952 42.3545 36.8952 41.6253 37.5193L31.7115 46.0191C30.7502 46.8459 29.9215 47.815 29.2506 48.8913C28.5798 47.815 27.7492 46.8477 26.7878 46.0191L16.8683 37.5173C16.1391 36.8932 15.0626 36.8932 14.3333 37.5173L4.41192 46.0191C-0.880286 50.5469 -1.49846 58.5086 3.02949 63.799C3.19131 63.9862 3.35706 64.1694 3.5287 64.349H1.95103C0.874738 64.349 0.00115865 65.2225 0.00115865 66.2988V115.048C0.00115865 116.124 0.874738 116.998 1.95103 116.998H115.049C116.125 116.998 116.999 116.125 116.999 115.048V66.2988C116.999 65.2225 116.125 64.349 115.049 64.349H113.472C118.304 59.3336 118.154 51.3524 113.138 46.5203C112.961 46.3487 112.775 46.1811 112.586 46.0191ZM67.6396 27.2996H72.7601L77.245 38.9507L76.27 39.9257L71.7597 33.9296C71.0499 33.0676 69.7786 32.9449 68.9166 33.6528C68.8151 33.7365 68.7235 33.8283 68.6398 33.9296L64.1391 39.9316L63.1641 38.9566L67.6396 27.2996ZM73.4758 42.7159L70.1999 45.9918L66.9241 42.7159L70.1999 38.35L73.4758 42.7159ZM67.4427 48.7492H59.3894L61.6203 42.9324L67.4427 48.7492ZM78.7798 42.9324L81.0107 48.7492H72.9573L78.7798 42.9324ZM75.5527 58.7115L91.5229 72.9072C90.5479 74.0714 89.2883 74.9605 87.8648 75.487L72.3236 61.6736C72.6083 61.3187 72.9184 60.9872 73.2538 60.681L75.5527 58.7115ZM91.6495 79.9487V89.6985H87.7496V83.8487H83.8496V89.6985H79.9497V83.8487H76.0497V89.6985H72.1498V79.9487H91.6495ZM82.6212 76.0488H78.9338C74.1467 76.0857 70.2369 72.2346 70.1999 67.4475C70.194 66.7045 70.2837 65.9656 70.4671 65.2459L82.6212 76.0488ZM72.15 93.5984H91.6497V105.298H72.15V93.5984ZM93.5996 67.3148C93.5937 67.9894 93.508 68.6602 93.3462 69.3154L78.5362 56.159L81.9 53.2671L90.55 60.6769C92.4881 62.3385 93.6035 64.7642 93.5996 67.3148ZM66.9396 11.8675L70.1999 8.6072L73.4603 11.8675C74.3144 12.7217 74.3144 14.1041 73.4622 14.9582C73.0527 15.3697 72.4951 15.6017 71.9141 15.5998H68.486C67.279 15.6017 66.3 14.6228 66.3 13.4157C66.3 12.8347 66.53 12.2789 66.9396 11.8675ZM71.9141 19.4997H72.15V23.3997H68.2501V19.4997H71.9141ZM25.181 49.9737L9.64179 63.7872C8.21827 63.2607 6.95873 62.3716 5.98369 61.2074L21.9519 47.0117L24.251 48.9812C24.5882 49.2873 24.8983 49.6188 25.181 49.9737ZM6.9489 48.9812L15.6009 41.5675L18.9647 44.4593L4.15454 57.6157C3.36472 54.4411 4.44692 51.0911 6.9489 48.9812ZM19.5007 77.8309C19.4987 76.0449 20.2925 74.3502 21.667 73.2076L29.2504 66.884L36.8338 73.2039C39.3903 75.3294 39.7393 79.1221 37.6138 81.6784C36.4691 83.0551 34.7727 83.8506 32.9827 83.8487H25.5182C22.1975 83.8447 19.5066 81.1538 19.5007 77.8309ZM21.4507 113.098V87.7486H37.0505V113.098H21.4507ZM40.9505 113.098V85.7985C40.9505 85.272 40.734 84.7671 40.3537 84.4024C44.0022 80.3736 43.6941 74.1495 39.6654 70.501C39.5562 70.4015 39.4449 70.3059 39.3319 70.2123L30.5005 62.8511C29.7772 62.2467 28.7241 62.2467 28.0007 62.8511L19.1694 70.2123C14.9808 73.6774 14.3939 79.8803 17.8589 84.0689C17.9525 84.1819 18.05 84.2932 18.1475 84.4024C17.7673 84.7671 17.5528 85.272 17.5508 85.7985V113.098H3.9011V107.248H13.6509V103.348H3.9011V93.5986H13.6509V89.6987H3.9011V76.049H11.701V72.149H3.9011V68.2491H17.5508V64.3492H14.8793L27.0336 53.5463C27.4079 55.0009 27.3885 56.5278 26.9789 57.9728L30.7345 59.0257C31.0446 57.9162 31.2005 56.7677 31.2005 55.6151C31.2005 53.0666 32.314 50.6446 34.2483 48.9853L42.9003 41.5677L51.5504 48.9775C55.2144 52.1149 55.6415 57.6295 52.504 61.2955C50.8445 63.2337 48.4188 64.3511 45.8663 64.3492H40.9505V68.2491H54.6002V72.149H46.8003V76.049H54.6002V89.6987H44.8504V93.5986H54.6002V103.348H44.8504V107.248H54.6002V113.098H40.9505ZM58.5001 113.098V109.198H64.3499V105.298H58.5001V97.4984H64.3499V93.5984H58.5001V89.6985H64.3499V85.7985H58.5001V84.8235C58.5001 82.1306 60.6822 79.9485 63.3751 79.9485C63.6071 79.9485 63.8411 79.966 64.0713 79.9973V79.9485H64.3501V78.0689L64.6289 76.1385C64.5373 76.1249 64.4339 76.1286 64.3501 76.119V76.0488H58.5001V75.0738C58.508 72.6538 60.2842 70.6024 62.6769 70.2475L62.4 68.3191V66.2988H58.5001V65.3238C58.5001 62.6309 60.6822 60.4488 63.3751 60.4488C63.6071 60.4488 63.8411 60.4663 64.0713 60.4976L64.6289 56.6385C64.2137 56.5799 63.7962 56.5489 63.3751 56.5489C61.6378 56.5489 59.9411 57.0656 58.5001 58.0347V52.6489H76.6349L70.7166 57.7188C65.4244 62.2485 64.8063 70.2122 69.338 75.5043C69.5153 75.713 69.7007 75.9139 69.8918 76.1107C68.9559 76.2491 68.2577 77.0506 68.2499 77.9983V113.098H58.5001V113.098ZM72.15 113.098V109.198H91.6497V113.098H72.15Z" fill="black"/>
<path d="M79.9497 97.4984H76.0497V101.398H79.9497V97.4984Z" fill="black"/>
<path d="M87.7496 97.4984H83.8496V101.398H87.7496V97.4984Z" fill="black"/>
<path d="M31.2005 91.6483H27.3005V95.5483H31.2005V91.6483Z" fill="black"/>
<path d="M31.2005 99.4482H27.3005V103.348H31.2005V99.4482Z" fill="black"/>
</svg>
