<svg width="117" height="117" viewBox="0 0 117 117" fill="none" xmlns="http://www.w3.org/2000/svg">
<path d="M38.3276 24.2068H102.879C103.995 24.2068 104.897 23.3051 104.897 22.1896C104.897 21.0741 103.995 20.1724 102.879 20.1724H38.3276C37.2121 20.1724 36.3103 21.0741 36.3103 22.1896C36.3103 23.3051 37.2121 24.2068 38.3276 24.2068Z" fill="#FB992E"/>
<path d="M78.6724 92.7931H14.1207C13.0052 92.7931 12.1035 93.6948 12.1035 94.8103C12.1035 95.9259 13.0052 96.8276 14.1207 96.8276H78.6724C79.7879 96.8276 80.6897 95.9259 80.6897 94.8103C80.6897 93.6948 79.7879 92.7931 78.6724 92.7931Z" fill="#FB992E"/>
<path d="M102.879 56.4828H72.6207C71.5052 56.4828 70.6035 57.3845 70.6035 58.5C70.6035 59.6156 71.5052 60.5173 72.6207 60.5173H102.879C103.995 60.5173 104.897 59.6156 104.897 58.5C104.897 57.3845 103.995 56.4828 102.879 56.4828Z" fill="#FB992E"/>
<path d="M14.1207 60.5173H48.4138C49.5293 60.5173 50.431 59.6156 50.431 58.5C50.431 57.3845 49.5293 56.4828 48.4138 56.4828H14.1207C13.0052 56.4828 12.1035 57.3845 12.1035 58.5C12.1035 59.6156 13.0052 60.5173 14.1207 60.5173Z" fill="#FB992E"/>
<path d="M26.2241 38.3276C32.9087 38.3276 38.3276 32.9087 38.3276 26.2242C38.3276 19.5396 32.9087 14.1207 26.2241 14.1207C19.5396 14.1207 14.1207 19.5396 14.1207 26.2242C14.1207 32.9087 19.5396 38.3276 26.2241 38.3276Z" fill="#C7CAC7"/>
<path d="M90.7759 110.948C97.4604 110.948 102.879 105.529 102.879 98.8448C102.879 92.1602 97.4604 86.7413 90.7759 86.7413C84.0913 86.7413 78.6724 92.1602 78.6724 98.8448C78.6724 105.529 84.0913 110.948 90.7759 110.948Z" fill="#C7CAC7"/>
<path d="M60.5172 74.6379C67.2018 74.6379 72.6207 69.219 72.6207 62.5345C72.6207 55.8499 67.2018 50.431 60.5172 50.431C53.8327 50.431 48.4138 55.8499 48.4138 62.5345C48.4138 69.219 53.8327 74.6379 60.5172 74.6379Z" fill="#C7CAC7"/>
<path d="M26.2241 34.2931C32.9087 34.2931 38.3276 28.8742 38.3276 22.1896C38.3276 15.5051 32.9087 10.0862 26.2241 10.0862C19.5396 10.0862 14.1207 15.5051 14.1207 22.1896C14.1207 28.8742 19.5396 34.2931 26.2241 34.2931Z" fill="white"/>
<path d="M90.7759 106.914C97.4604 106.914 102.879 101.495 102.879 94.8104C102.879 88.1258 97.4604 82.7069 90.7759 82.7069C84.0913 82.7069 78.6724 88.1258 78.6724 94.8104C78.6724 101.495 84.0913 106.914 90.7759 106.914Z" fill="white"/>
<path d="M60.5172 70.6035C67.2018 70.6035 72.6207 65.1846 72.6207 58.5001C72.6207 51.8155 67.2018 46.3966 60.5172 46.3966C53.8327 46.3966 48.4138 51.8155 48.4138 58.5001C48.4138 65.1846 53.8327 70.6035 60.5172 70.6035Z" fill="white"/>
</svg>
