<svg width="50" height="36" viewBox="0 0 50 36" fill="none" xmlns="http://www.w3.org/2000/svg">
<path d="M45.9691 35.8038H4.03051C1.80879 35.8038 -0.000183105 34.0163 -0.000183105 31.8174V4.63485C-0.000183105 2.43594 1.80879 0.648438 4.03051 0.648438H45.9691C48.1908 0.648438 49.9998 2.43594 49.9998 4.63485V31.8174C49.9998 34.0163 48.1908 35.8038 45.9691 35.8038ZM4.03051 2.243C2.69716 2.243 1.6121 3.31614 1.6121 4.63485V31.8174C1.6121 33.1361 2.69716 34.2092 4.03051 34.2092H45.9691C47.3025 34.2092 48.3875 33.1361 48.3875 31.8174V4.63485C48.3875 3.31614 47.3025 2.243 45.9691 2.243H4.03051Z" fill="#424242"/>
<path d="M25.0003 22.2324C23.9281 22.2324 22.856 21.88 22.0401 21.1768L1.33848 3.31612C1.00312 3.02751 0.967653 2.52362 1.25948 2.19036C1.55452 1.85869 2.06239 1.82839 2.39774 2.11382L23.0994 19.9729C24.1297 20.8611 25.8709 20.8611 26.8996 19.9729L47.5754 2.14252C47.9092 1.85391 48.417 1.8858 48.7137 2.21906C49.0055 2.55232 48.9717 3.05461 48.6363 3.34482L27.9604 21.1752C27.143 21.88 26.0725 22.2324 25.0003 22.2324Z" fill="#424242"/>
</svg>
