<svg width="117" height="120" viewBox="0 0 117 120" fill="none" xmlns="http://www.w3.org/2000/svg">
<path d="M104.897 14.1219H92.7935L88.7591 72.6224H108.931L104.897 14.1219Z" fill="#ACABB1"/>
<path d="M64.5516 90.7769H80.6902V119.019H64.5516V90.7769Z" fill="#57565C"/>
<path d="M12.1033 94.8121H20.1721V106.915H12.1033V94.8121Z" fill="#ACABB1"/>
<path d="M28.2419 94.8121H36.3107V106.915H28.2419V94.8121Z" fill="#ACABB1"/>
<path d="M44.3795 94.8121H52.4484V106.915H44.3795V94.8121Z" fill="#ACABB1"/>
<path d="M60.5172 58.5015L40.3451 74.6391V58.5015L20.1721 74.6391V58.5015L0 70.6047V119.019H60.5172V58.5015ZM20.1721 106.915H12.1033V94.8122H20.1721V106.915ZM36.3107 106.915H28.2418V94.8122H36.3107V106.915ZM52.4484 106.915H44.3795V94.8122H52.4484V106.915Z" fill="#FB992E"/>
<path d="M108.931 72.6224H80.6902V58.5015L60.5172 74.6391V119.019H64.5516V90.7768H80.6902V119.019H117V72.6224H108.931Z" fill="#EEBC3D"/>
<path d="M98.8446 8.06983C96.9741 8.05076 95.2642 7.00833 94.3889 5.35479C93.7233 4.39499 93.4745 4.03541 92.3894 4.03541C92.2441 4.12258 91.4959 4.82631 91.0019 5.29032C89.7252 6.8249 87.9146 7.8183 85.9341 8.06983C84.2188 7.84282 82.6552 6.96565 81.5674 5.61903C80.9826 5.07239 79.8948 4.05357 79.4789 4.03541C78.8605 4.43858 78.2903 4.91257 77.7808 5.44741C76.5877 6.89573 74.886 7.83374 73.0245 8.06983C71.2548 7.83192 69.6421 6.93205 68.5098 5.55274C67.9468 4.94163 67.2866 4.42859 66.5548 4.03541C65.4406 4.03177 64.5407 3.12555 64.5444 2.01139C64.5489 0.897221 65.4551 -0.00264614 66.5693 0.00098603C68.4108 0.240708 70.0934 1.17236 71.2729 2.60706C71.8041 3.17186 72.4161 3.65494 73.089 4.03995C73.8091 3.62316 74.4638 3.10285 75.0313 2.49446C76.1473 1.1324 77.7354 0.242525 79.4789 0.00098603C81.3758 0.242525 83.1074 1.1996 84.3205 2.67607C84.8236 3.20637 85.3948 3.66674 86.0195 4.04539C86.439 4.04539 87.5622 2.98026 88.2378 2.34918C89.273 1.06702 90.7576 0.227088 92.3894 0.00098603C94.5905 -0.0389678 96.6345 1.13785 97.7051 3.06108C98.3625 4.00726 98.4415 4.03541 98.8446 4.03541C99.9588 4.03541 100.862 4.93891 100.862 6.05307C100.862 7.16723 99.9588 8.06983 98.8446 8.06983Z" fill="#898890"/>
</svg>
