<svg width="51" height="50" viewBox="0 0 51 50" fill="none" xmlns="http://www.w3.org/2000/svg">
<path d="M40.9103 50C38.8069 50 36.2664 49.4787 33.4726 48.436C27.3476 46.1522 20.6836 41.6383 14.7082 35.7287C8.73116 29.8173 4.16717 23.2249 1.85627 17.1672C-0.243772 11.6595 -0.248873 7.13895 1.84437 5.0704C2.14535 4.77273 2.45143 4.4532 2.76771 4.12358C4.67731 2.13743 6.83517 -0.0976093 9.69531 0.00329558C11.6661 0.0840195 13.5757 1.29488 15.5312 3.70146C21.3093 10.8085 18.7042 13.3412 15.6894 16.2776L15.1571 16.7989C14.664 17.2866 13.7322 19.5452 22.401 28.1188C25.2305 30.9172 27.6435 32.9656 29.5718 34.205C30.7859 34.9853 32.9573 36.1659 33.8484 35.2847L34.384 34.7499C37.3496 31.7749 39.9105 29.2069 47.0914 34.9164C49.5247 36.8504 50.7474 38.7373 50.829 40.6898C50.9463 43.5169 48.6694 45.656 46.6595 47.543C46.3279 47.8558 46.0048 48.1585 45.7039 48.4545C44.6649 49.4837 43.0036 50 40.9103 50ZM9.49126 1.68168C7.45923 1.68168 5.62445 3.59215 4.00053 5.2823C3.67405 5.62202 3.35776 5.95164 3.04658 6.2594C1.48728 7.79988 1.64542 11.8479 3.44789 16.5752C5.67546 22.4143 10.1017 28.7948 15.9121 34.5414C21.7208 40.2845 28.1689 44.6621 34.0745 46.8635C38.8545 48.6496 42.9474 48.8009 44.5033 47.2621C44.8145 46.9544 45.1478 46.6415 45.4913 46.3203C47.2377 44.6789 49.2187 42.8189 49.1319 40.7554C49.0724 39.3377 48.0284 37.8124 46.0286 36.2231C40.0448 31.4638 38.3716 33.1438 35.5964 35.9271L35.0523 36.4703C33.7259 37.7838 31.5715 37.4928 28.6467 35.6126C26.6181 34.3076 24.1117 32.1852 21.2005 29.3044C14.0059 22.1906 11.7052 17.8366 13.9566 15.6049L14.4991 15.0751C17.3201 12.3305 19.0222 10.674 14.2083 4.75255C12.598 2.7765 11.0574 1.74391 9.62389 1.68336C9.57968 1.68168 9.53547 1.68168 9.49126 1.68168Z" fill="#424242"/>
</svg>
